<mxfile host="Electron" agent="Mozilla/5.0 (Macintosh; Intel Mac OS X 10_15_7) AppleWebKit/537.36 (KHTML, like Gecko) draw.io/24.7.17 Chrome/128.0.6613.36 Electron/32.0.1 Safari/537.36" version="24.7.17">
  <diagram name="Page-1" id="VFC6to7hDZTqyzVQantm">
    <mxGraphModel dx="2390" dy="1126" grid="1" gridSize="10" guides="1" tooltips="1" connect="1" arrows="1" fold="1" page="1" pageScale="1" pageWidth="827" pageHeight="1169" math="0" shadow="0">
      <root>
        <mxCell id="0" />
        <mxCell id="1" parent="0" />
        <mxCell id="kXFPGUBoY8XizePe8H00-56" value="&lt;span style=&quot;font-size: 22px;&quot;&gt;Customer&lt;/span&gt;" style="rounded=1;whiteSpace=wrap;html=1;labelBackgroundColor=none;" parent="1" vertex="1">
          <mxGeometry x="950" y="1300" width="120" height="60" as="geometry" />
        </mxCell>
        <mxCell id="kXFPGUBoY8XizePe8H00-53" value="&lt;font style=&quot;font-size: 19px;&quot;&gt;Restaurant Branch&lt;/font&gt;" style="rounded=1;whiteSpace=wrap;html=1;labelBackgroundColor=none;verticalAlign=middle;" parent="1" vertex="1">
          <mxGeometry x="670" y="705" width="120" height="60" as="geometry" />
        </mxCell>
        <mxCell id="kXFPGUBoY8XizePe8H00-54" value="&lt;font style=&quot;font-size: 18px;&quot;&gt;Menu Item&lt;/font&gt;" style="rounded=1;whiteSpace=wrap;html=1;labelBackgroundColor=none;" parent="1" vertex="1">
          <mxGeometry x="1040" y="705" width="120" height="60" as="geometry" />
        </mxCell>
        <mxCell id="kXFPGUBoY8XizePe8H00-55" value="&lt;font style=&quot;font-size: 20px;&quot;&gt;Employees&lt;/font&gt;" style="rounded=1;whiteSpace=wrap;html=1;labelBackgroundColor=none;" parent="1" vertex="1">
          <mxGeometry x="470" y="980" width="120" height="60" as="geometry" />
        </mxCell>
        <mxCell id="kXFPGUBoY8XizePe8H00-57" style="edgeStyle=none;shape=connector;rounded=0;orthogonalLoop=1;jettySize=auto;html=1;exitX=0.5;exitY=1;exitDx=0;exitDy=0;entryX=0.5;entryY=0;entryDx=0;entryDy=0;align=center;verticalAlign=middle;fontFamily=Helvetica;fontSize=11;fontColor=default;labelBackgroundColor=none;endArrow=none;" parent="1" source="kXFPGUBoY8XizePe8H00-58" target="kXFPGUBoY8XizePe8H00-53" edge="1">
          <mxGeometry relative="1" as="geometry" />
        </mxCell>
        <mxCell id="kXFPGUBoY8XizePe8H00-58" value="Address" style="ellipse;whiteSpace=wrap;html=1;labelBackgroundColor=none;" parent="1" vertex="1">
          <mxGeometry x="670" y="590" width="80" height="40" as="geometry" />
        </mxCell>
        <mxCell id="kXFPGUBoY8XizePe8H00-59" style="edgeStyle=none;shape=connector;rounded=0;orthogonalLoop=1;jettySize=auto;html=1;exitX=1;exitY=1;exitDx=0;exitDy=0;entryX=0;entryY=0;entryDx=0;entryDy=0;align=center;verticalAlign=middle;fontFamily=Helvetica;fontSize=11;fontColor=default;labelBackgroundColor=none;endArrow=none;" parent="1" source="kXFPGUBoY8XizePe8H00-60" target="kXFPGUBoY8XizePe8H00-53" edge="1">
          <mxGeometry relative="1" as="geometry" />
        </mxCell>
        <mxCell id="kXFPGUBoY8XizePe8H00-60" value="&lt;u&gt;Branch num.&lt;/u&gt;" style="ellipse;whiteSpace=wrap;html=1;labelBackgroundColor=none;" parent="1" vertex="1">
          <mxGeometry x="550" y="620" width="80" height="40" as="geometry" />
        </mxCell>
        <mxCell id="kXFPGUBoY8XizePe8H00-64" style="edgeStyle=none;shape=connector;rounded=0;orthogonalLoop=1;jettySize=auto;html=1;exitX=1;exitY=0.5;exitDx=0;exitDy=0;align=center;verticalAlign=middle;fontFamily=Helvetica;fontSize=11;fontColor=default;labelBackgroundColor=none;endArrow=none;" parent="1" source="kXFPGUBoY8XizePe8H00-65" target="kXFPGUBoY8XizePe8H00-55" edge="1">
          <mxGeometry relative="1" as="geometry" />
        </mxCell>
        <mxCell id="kXFPGUBoY8XizePe8H00-65" value="&lt;u&gt;Employee ID&lt;/u&gt;" style="ellipse;whiteSpace=wrap;html=1;labelBackgroundColor=none;" parent="1" vertex="1">
          <mxGeometry x="330" y="990" width="80" height="40" as="geometry" />
        </mxCell>
        <mxCell id="kXFPGUBoY8XizePe8H00-182" value="" style="edgeStyle=none;shape=connector;rounded=0;orthogonalLoop=1;jettySize=auto;html=1;strokeColor=default;align=center;verticalAlign=bottom;fontFamily=Helvetica;fontSize=11;fontColor=default;labelBackgroundColor=default;endArrow=none;endFill=0;" parent="1" source="kXFPGUBoY8XizePe8H00-67" target="kXFPGUBoY8XizePe8H00-55" edge="1">
          <mxGeometry relative="1" as="geometry" />
        </mxCell>
        <mxCell id="kXFPGUBoY8XizePe8H00-67" value="Full Name" style="ellipse;whiteSpace=wrap;html=1;labelBackgroundColor=none;" parent="1" vertex="1">
          <mxGeometry x="350" y="1060" width="80" height="40" as="geometry" />
        </mxCell>
        <mxCell id="kXFPGUBoY8XizePe8H00-231" value="" style="edgeStyle=none;shape=connector;rounded=0;orthogonalLoop=1;jettySize=auto;html=1;strokeColor=default;align=center;verticalAlign=bottom;fontFamily=Helvetica;fontSize=14;fontColor=default;labelBackgroundColor=default;endArrow=none;endFill=0;" parent="1" source="kXFPGUBoY8XizePe8H00-69" target="kXFPGUBoY8XizePe8H00-54" edge="1">
          <mxGeometry relative="1" as="geometry" />
        </mxCell>
        <mxCell id="kXFPGUBoY8XizePe8H00-69" value="Item Name" style="ellipse;whiteSpace=wrap;html=1;labelBackgroundColor=none;" parent="1" vertex="1">
          <mxGeometry x="1030" y="600" width="80" height="40" as="geometry" />
        </mxCell>
        <mxCell id="kXFPGUBoY8XizePe8H00-70" value="&lt;u&gt;Code&lt;/u&gt;" style="ellipse;whiteSpace=wrap;html=1;labelBackgroundColor=none;" parent="1" vertex="1">
          <mxGeometry x="1140" y="620" width="80" height="40" as="geometry" />
        </mxCell>
        <mxCell id="kXFPGUBoY8XizePe8H00-71" style="edgeStyle=none;shape=connector;rounded=0;orthogonalLoop=1;jettySize=auto;html=1;exitX=0;exitY=0.5;exitDx=0;exitDy=0;entryX=1;entryY=0.5;entryDx=0;entryDy=0;align=center;verticalAlign=middle;fontFamily=Helvetica;fontSize=11;fontColor=default;labelBackgroundColor=none;endArrow=none;" parent="1" source="kXFPGUBoY8XizePe8H00-72" target="kXFPGUBoY8XizePe8H00-54" edge="1">
          <mxGeometry relative="1" as="geometry" />
        </mxCell>
        <mxCell id="kXFPGUBoY8XizePe8H00-72" value="Price" style="ellipse;whiteSpace=wrap;html=1;labelBackgroundColor=none;" parent="1" vertex="1">
          <mxGeometry x="1200" y="715" width="80" height="40" as="geometry" />
        </mxCell>
        <mxCell id="kXFPGUBoY8XizePe8H00-73" style="edgeStyle=none;shape=connector;rounded=0;orthogonalLoop=1;jettySize=auto;html=1;exitX=1;exitY=0.5;exitDx=0;exitDy=0;entryX=0;entryY=0.5;entryDx=0;entryDy=0;align=center;verticalAlign=middle;fontFamily=Helvetica;fontSize=11;fontColor=default;labelBackgroundColor=none;endArrow=none;" parent="1" source="kXFPGUBoY8XizePe8H00-74" target="kXFPGUBoY8XizePe8H00-53" edge="1">
          <mxGeometry relative="1" as="geometry" />
        </mxCell>
        <mxCell id="kXFPGUBoY8XizePe8H00-74" value="Contact num." style="ellipse;whiteSpace=wrap;html=1;labelBackgroundColor=none;" parent="1" vertex="1">
          <mxGeometry x="520" y="715" width="80" height="40" as="geometry" />
        </mxCell>
        <mxCell id="kXFPGUBoY8XizePe8H00-85" value="Contact num." style="ellipse;whiteSpace=wrap;html=1;labelBackgroundColor=none;" parent="1" vertex="1">
          <mxGeometry x="1080" y="1413" width="80" height="40" as="geometry" />
        </mxCell>
        <mxCell id="kXFPGUBoY8XizePe8H00-175" value="" style="edgeStyle=none;shape=connector;rounded=0;orthogonalLoop=1;jettySize=auto;html=1;strokeColor=default;align=center;verticalAlign=bottom;fontFamily=Helvetica;fontSize=11;fontColor=default;labelBackgroundColor=default;endArrow=none;endFill=0;" parent="1" source="kXFPGUBoY8XizePe8H00-87" target="kXFPGUBoY8XizePe8H00-56" edge="1">
          <mxGeometry relative="1" as="geometry" />
        </mxCell>
        <mxCell id="kXFPGUBoY8XizePe8H00-87" value="&lt;u&gt;Code&lt;/u&gt;" style="ellipse;whiteSpace=wrap;html=1;labelBackgroundColor=none;" parent="1" vertex="1">
          <mxGeometry x="970" y="1440" width="80" height="40" as="geometry" />
        </mxCell>
        <mxCell id="kXFPGUBoY8XizePe8H00-95" style="edgeStyle=none;shape=connector;rounded=0;orthogonalLoop=1;jettySize=auto;html=1;exitX=0;exitY=1;exitDx=0;exitDy=0;entryX=0.692;entryY=0.025;entryDx=0;entryDy=0;entryPerimeter=0;align=center;verticalAlign=middle;fontFamily=Helvetica;fontSize=11;fontColor=default;labelBackgroundColor=none;endArrow=none;" parent="1" source="kXFPGUBoY8XizePe8H00-70" target="kXFPGUBoY8XizePe8H00-54" edge="1">
          <mxGeometry relative="1" as="geometry" />
        </mxCell>
        <mxCell id="kXFPGUBoY8XizePe8H00-98" value="Address" style="ellipse;whiteSpace=wrap;html=1;labelBackgroundColor=none;" parent="1" vertex="1">
          <mxGeometry x="420" y="1110" width="80" height="40" as="geometry" />
        </mxCell>
        <mxCell id="kXFPGUBoY8XizePe8H00-117" value="Name" style="ellipse;whiteSpace=wrap;html=1;labelBackgroundColor=none;" parent="1" vertex="1">
          <mxGeometry x="860" y="1413" width="80" height="40" as="geometry" />
        </mxCell>
        <mxCell id="kXFPGUBoY8XizePe8H00-125" value="M" style="edgeStyle=none;shape=link;rounded=0;orthogonalLoop=1;jettySize=auto;html=1;strokeColor=default;align=center;verticalAlign=bottom;fontFamily=Helvetica;fontSize=11;fontColor=default;labelBackgroundColor=default;endArrow=none;endFill=0;strokeWidth=1;" parent="1" source="kXFPGUBoY8XizePe8H00-121" target="kXFPGUBoY8XizePe8H00-54" edge="1">
          <mxGeometry relative="1" as="geometry" />
        </mxCell>
        <mxCell id="kXFPGUBoY8XizePe8H00-126" value="N" style="edgeStyle=none;shape=link;rounded=0;orthogonalLoop=1;jettySize=auto;html=1;strokeColor=default;align=center;verticalAlign=bottom;fontFamily=Helvetica;fontSize=11;fontColor=default;labelBackgroundColor=default;endArrow=none;endFill=0;" parent="1" source="kXFPGUBoY8XizePe8H00-121" target="kXFPGUBoY8XizePe8H00-53" edge="1">
          <mxGeometry relative="1" as="geometry" />
        </mxCell>
        <mxCell id="kXFPGUBoY8XizePe8H00-121" value="&lt;font style=&quot;font-size: 14px;&quot;&gt;Serves&lt;/font&gt;" style="rhombus;whiteSpace=wrap;html=1;fontFamily=Helvetica;fontSize=11;fontColor=default;labelBackgroundColor=default;" parent="1" vertex="1">
          <mxGeometry x="880" y="695" width="80" height="80" as="geometry" />
        </mxCell>
        <mxCell id="kXFPGUBoY8XizePe8H00-144" value="&lt;font style=&quot;font-size: 16px;&quot;&gt;There are many restaurant branches; each branch has Identification&lt;br&gt;number beside its address and contact number.&lt;br&gt;• Each branch has its own staff members, which belong to this branch,&lt;br&gt;one member of this staff acts as the branch manager. Each branch&lt;br&gt;must have one manager.&lt;br&gt;• Each Staff member described by the employee’s full name, ID, age,&lt;br&gt;address that described as (city and region), role, joining date and&lt;br&gt;monthly salary.&lt;br&gt;• The system is required to track XYZ customers’ information. Each&lt;br&gt;customer has a code on the system, name, and a contact number.&lt;br&gt;• The system is asked to record the menu items provided by the&lt;br&gt;branch. Some menu items are sharable between the branches. Data&lt;br&gt;about menu item is the code, item name, unit price, item category&lt;br&gt;(e.g. pizza, beverage ...).&lt;br&gt;&lt;br&gt;&lt;br&gt;• In addition, it is important to track the orders information placed by&lt;br&gt;customers; each order has an ID, desired address to send the order&lt;br&gt;to, total bill as well as the items ordered. The date and time of the&lt;br&gt;placed order are important information to save.&lt;br&gt;• Each order has one item or more.&lt;br&gt;• XYZ has the contact numbers and the names of delivery boys&lt;br&gt;to communicate in case there are orders required to be delivered. A&lt;br&gt;delivery boy can deliver multiple orders but an order can only be&lt;br&gt;delivered by one delivery boy.&lt;/font&gt;" style="text;html=1;align=center;verticalAlign=middle;whiteSpace=wrap;rounded=0;fontFamily=Helvetica;fontSize=16;fontColor=default;labelBackgroundColor=default;spacing=2;" parent="1" vertex="1">
          <mxGeometry x="620" y="1590" width="570" height="560" as="geometry" />
        </mxCell>
        <mxCell id="kXFPGUBoY8XizePe8H00-164" value="Category" style="ellipse;whiteSpace=wrap;html=1;labelBackgroundColor=none;" parent="1" vertex="1">
          <mxGeometry x="1160" y="790" width="80" height="40" as="geometry" />
        </mxCell>
        <mxCell id="kXFPGUBoY8XizePe8H00-166" style="edgeStyle=none;shape=connector;rounded=0;orthogonalLoop=1;jettySize=auto;html=1;exitX=0;exitY=0;exitDx=0;exitDy=0;entryX=0.894;entryY=0.978;entryDx=0;entryDy=0;entryPerimeter=0;strokeColor=default;align=center;verticalAlign=bottom;fontFamily=Helvetica;fontSize=11;fontColor=default;labelBackgroundColor=default;endArrow=none;endFill=0;" parent="1" source="kXFPGUBoY8XizePe8H00-164" target="kXFPGUBoY8XizePe8H00-54" edge="1">
          <mxGeometry relative="1" as="geometry" />
        </mxCell>
        <mxCell id="kXFPGUBoY8XizePe8H00-174" style="edgeStyle=none;shape=connector;rounded=0;orthogonalLoop=1;jettySize=auto;html=1;exitX=0;exitY=0;exitDx=0;exitDy=0;entryX=0.842;entryY=1.05;entryDx=0;entryDy=0;entryPerimeter=0;strokeColor=default;align=center;verticalAlign=bottom;fontFamily=Helvetica;fontSize=11;fontColor=default;labelBackgroundColor=default;endArrow=none;endFill=0;" parent="1" source="kXFPGUBoY8XizePe8H00-85" target="kXFPGUBoY8XizePe8H00-56" edge="1">
          <mxGeometry relative="1" as="geometry" />
        </mxCell>
        <mxCell id="kXFPGUBoY8XizePe8H00-177" style="edgeStyle=none;shape=connector;rounded=0;orthogonalLoop=1;jettySize=auto;html=1;exitX=1;exitY=0;exitDx=0;exitDy=0;entryX=0.15;entryY=1.033;entryDx=0;entryDy=0;entryPerimeter=0;strokeColor=default;align=center;verticalAlign=bottom;fontFamily=Helvetica;fontSize=11;fontColor=default;labelBackgroundColor=default;endArrow=none;endFill=0;" parent="1" source="kXFPGUBoY8XizePe8H00-117" target="kXFPGUBoY8XizePe8H00-56" edge="1">
          <mxGeometry relative="1" as="geometry" />
        </mxCell>
        <mxCell id="kXFPGUBoY8XizePe8H00-185" style="edgeStyle=none;shape=connector;rounded=0;orthogonalLoop=1;jettySize=auto;html=1;exitX=1;exitY=1;exitDx=0;exitDy=0;entryX=0;entryY=0;entryDx=0;entryDy=0;strokeColor=default;align=center;verticalAlign=bottom;fontFamily=Helvetica;fontSize=11;fontColor=default;labelBackgroundColor=default;endArrow=none;endFill=0;" parent="1" source="kXFPGUBoY8XizePe8H00-178" target="kXFPGUBoY8XizePe8H00-55" edge="1">
          <mxGeometry relative="1" as="geometry" />
        </mxCell>
        <mxCell id="kXFPGUBoY8XizePe8H00-178" value="Age" style="ellipse;whiteSpace=wrap;html=1;labelBackgroundColor=none;" parent="1" vertex="1">
          <mxGeometry x="340" y="910" width="80" height="40" as="geometry" />
        </mxCell>
        <mxCell id="kXFPGUBoY8XizePe8H00-195" style="edgeStyle=none;shape=connector;rounded=0;orthogonalLoop=1;jettySize=auto;html=1;exitX=0;exitY=0;exitDx=0;exitDy=0;entryX=1;entryY=1;entryDx=0;entryDy=0;strokeColor=default;align=center;verticalAlign=bottom;fontFamily=Helvetica;fontSize=11;fontColor=default;labelBackgroundColor=default;endArrow=none;endFill=0;" parent="1" source="kXFPGUBoY8XizePe8H00-179" target="kXFPGUBoY8XizePe8H00-55" edge="1">
          <mxGeometry relative="1" as="geometry" />
        </mxCell>
        <mxCell id="kXFPGUBoY8XizePe8H00-179" value="Salary" style="ellipse;whiteSpace=wrap;html=1;labelBackgroundColor=none;" parent="1" vertex="1">
          <mxGeometry x="620" y="1080" width="80" height="40" as="geometry" />
        </mxCell>
        <mxCell id="kXFPGUBoY8XizePe8H00-199" style="edgeStyle=none;shape=connector;rounded=0;orthogonalLoop=1;jettySize=auto;html=1;exitX=1;exitY=0;exitDx=0;exitDy=0;entryX=0;entryY=0.5;entryDx=0;entryDy=0;strokeColor=default;align=center;verticalAlign=bottom;fontFamily=Helvetica;fontSize=11;fontColor=default;labelBackgroundColor=default;endArrow=none;endFill=0;" parent="1" source="kXFPGUBoY8XizePe8H00-186" target="kXFPGUBoY8XizePe8H00-98" edge="1">
          <mxGeometry relative="1" as="geometry" />
        </mxCell>
        <mxCell id="kXFPGUBoY8XizePe8H00-186" value="City" style="ellipse;whiteSpace=wrap;html=1;labelBackgroundColor=none;" parent="1" vertex="1">
          <mxGeometry x="320" y="1140" width="80" height="40" as="geometry" />
        </mxCell>
        <mxCell id="kXFPGUBoY8XizePe8H00-196" value="" style="edgeStyle=none;shape=connector;rounded=0;orthogonalLoop=1;jettySize=auto;html=1;strokeColor=default;align=center;verticalAlign=bottom;fontFamily=Helvetica;fontSize=11;fontColor=default;labelBackgroundColor=default;endArrow=none;endFill=0;" parent="1" source="kXFPGUBoY8XizePe8H00-187" target="kXFPGUBoY8XizePe8H00-98" edge="1">
          <mxGeometry relative="1" as="geometry" />
        </mxCell>
        <mxCell id="kXFPGUBoY8XizePe8H00-187" value="Region" style="ellipse;whiteSpace=wrap;html=1;labelBackgroundColor=none;" parent="1" vertex="1">
          <mxGeometry x="400" y="1190" width="80" height="40" as="geometry" />
        </mxCell>
        <mxCell id="kXFPGUBoY8XizePe8H00-194" style="edgeStyle=none;shape=connector;rounded=0;orthogonalLoop=1;jettySize=auto;html=1;exitX=0.5;exitY=0;exitDx=0;exitDy=0;entryX=0.158;entryY=1.067;entryDx=0;entryDy=0;entryPerimeter=0;strokeColor=default;align=center;verticalAlign=bottom;fontFamily=Helvetica;fontSize=11;fontColor=default;labelBackgroundColor=default;endArrow=none;endFill=0;" parent="1" source="kXFPGUBoY8XizePe8H00-98" target="kXFPGUBoY8XizePe8H00-55" edge="1">
          <mxGeometry relative="1" as="geometry" />
        </mxCell>
        <mxCell id="kXFPGUBoY8XizePe8H00-209" value="1" style="edgeStyle=none;shape=link;rounded=0;orthogonalLoop=1;jettySize=auto;html=1;strokeColor=default;align=right;verticalAlign=bottom;fontFamily=Helvetica;fontSize=11;fontColor=default;labelBackgroundColor=default;endArrow=none;endFill=0;" parent="1" source="kXFPGUBoY8XizePe8H00-200" target="kXFPGUBoY8XizePe8H00-53" edge="1">
          <mxGeometry relative="1" as="geometry" />
        </mxCell>
        <mxCell id="kXFPGUBoY8XizePe8H00-210" value="M" style="edgeStyle=none;shape=link;rounded=0;orthogonalLoop=1;jettySize=auto;html=1;strokeColor=default;align=right;verticalAlign=bottom;fontFamily=Helvetica;fontSize=11;fontColor=default;labelBackgroundColor=default;endArrow=none;endFill=0;" parent="1" source="kXFPGUBoY8XizePe8H00-200" target="kXFPGUBoY8XizePe8H00-55" edge="1">
          <mxGeometry relative="1" as="geometry" />
        </mxCell>
        <mxCell id="kXFPGUBoY8XizePe8H00-200" value="&lt;font style=&quot;font-size: 14px;&quot;&gt;Works in&lt;/font&gt;" style="rhombus;whiteSpace=wrap;html=1;fontFamily=Helvetica;fontSize=11;fontColor=default;labelBackgroundColor=default;" parent="1" vertex="1">
          <mxGeometry x="640" y="850" width="80" height="80" as="geometry" />
        </mxCell>
        <mxCell id="kXFPGUBoY8XizePe8H00-217" value="1" style="edgeStyle=none;shape=connector;rounded=0;orthogonalLoop=1;jettySize=auto;html=1;strokeColor=default;align=right;verticalAlign=bottom;fontFamily=Helvetica;fontSize=14;fontColor=default;labelBackgroundColor=default;endArrow=none;endFill=0;" parent="1" source="kXFPGUBoY8XizePe8H00-216" target="kXFPGUBoY8XizePe8H00-55" edge="1">
          <mxGeometry relative="1" as="geometry" />
        </mxCell>
        <mxCell id="kXFPGUBoY8XizePe8H00-218" value="1" style="edgeStyle=none;shape=link;rounded=0;orthogonalLoop=1;jettySize=auto;html=1;exitX=1;exitY=0;exitDx=0;exitDy=0;entryX=0;entryY=1;entryDx=0;entryDy=0;strokeColor=default;align=center;verticalAlign=bottom;fontFamily=Helvetica;fontSize=14;fontColor=default;labelBackgroundColor=default;endArrow=none;endFill=0;" parent="1" source="kXFPGUBoY8XizePe8H00-216" target="kXFPGUBoY8XizePe8H00-53" edge="1">
          <mxGeometry relative="1" as="geometry" />
        </mxCell>
        <mxCell id="kXFPGUBoY8XizePe8H00-216" value="Manages" style="rhombus;whiteSpace=wrap;html=1;strokeColor=default;align=center;verticalAlign=middle;fontFamily=Helvetica;fontSize=14;fontColor=default;labelBackgroundColor=default;fillColor=default;" parent="1" vertex="1">
          <mxGeometry x="510" y="810" width="80" height="80" as="geometry" />
        </mxCell>
        <mxCell id="kXFPGUBoY8XizePe8H00-227" value="" style="edgeStyle=none;shape=connector;rounded=0;orthogonalLoop=1;jettySize=auto;html=1;strokeColor=default;align=center;verticalAlign=bottom;fontFamily=Helvetica;fontSize=14;fontColor=default;labelBackgroundColor=default;endArrow=none;endFill=0;" parent="1" source="kXFPGUBoY8XizePe8H00-226" target="kXFPGUBoY8XizePe8H00-55" edge="1">
          <mxGeometry relative="1" as="geometry" />
        </mxCell>
        <mxCell id="kXFPGUBoY8XizePe8H00-226" value="Role&lt;span style=&quot;color: rgba(0, 0, 0, 0); font-family: monospace; font-size: 0px; text-align: start; text-wrap: nowrap;&quot;&gt;%3CmxGraphModel%3E%3Croot%3E%3CmxCell%20id%3D%220%22%2F%3E%3CmxCell%20id%3D%221%22%20parent%3D%220%22%2F%3E%3CmxCell%20id%3D%222%22%20value%3D%22Salary%22%20style%3D%22ellipse%3BwhiteSpace%3Dwrap%3Bhtml%3D1%3BlabelBackgroundColor%3Dnone%3B%22%20vertex%3D%221%22%20parent%3D%221%22%3E%3CmxGeometry%20x%3D%22660%22%20y%3D%221030%22%20width%3D%2280%22%20height%3D%2240%22%20as%3D%22geometry%22%2F%3E%3C%2FmxCell%3E%3C%2Froot%3E%3C%2FmxGraphModel%3E&lt;/span&gt;" style="ellipse;whiteSpace=wrap;html=1;labelBackgroundColor=none;" parent="1" vertex="1">
          <mxGeometry x="530" y="1110" width="80" height="40" as="geometry" />
        </mxCell>
        <mxCell id="kXFPGUBoY8XizePe8H00-229" value="" style="edgeStyle=none;shape=connector;rounded=0;orthogonalLoop=1;jettySize=auto;html=1;strokeColor=default;align=center;verticalAlign=bottom;fontFamily=Helvetica;fontSize=14;fontColor=default;labelBackgroundColor=default;endArrow=none;endFill=0;" parent="1" source="kXFPGUBoY8XizePe8H00-228" target="kXFPGUBoY8XizePe8H00-55" edge="1">
          <mxGeometry relative="1" as="geometry" />
        </mxCell>
        <mxCell id="kXFPGUBoY8XizePe8H00-228" value="Joining date." style="ellipse;whiteSpace=wrap;html=1;labelBackgroundColor=none;" parent="1" vertex="1">
          <mxGeometry x="660" y="1020" width="80" height="40" as="geometry" />
        </mxCell>
        <mxCell id="kXFPGUBoY8XizePe8H00-232" value="&lt;span style=&quot;font-size: 22px;&quot;&gt;Delivery boy&lt;/span&gt;" style="rounded=1;whiteSpace=wrap;html=1;labelBackgroundColor=none;" parent="1" vertex="1">
          <mxGeometry x="1290" y="1197" width="120" height="60" as="geometry" />
        </mxCell>
        <mxCell id="kXFPGUBoY8XizePe8H00-272" value="" style="edgeStyle=none;shape=connector;rounded=0;orthogonalLoop=1;jettySize=auto;html=1;strokeColor=default;align=center;verticalAlign=bottom;fontFamily=Helvetica;fontSize=14;fontColor=default;labelBackgroundColor=default;endArrow=none;endFill=0;" parent="1" source="kXFPGUBoY8XizePe8H00-233" target="kXFPGUBoY8XizePe8H00-232" edge="1">
          <mxGeometry relative="1" as="geometry" />
        </mxCell>
        <mxCell id="kXFPGUBoY8XizePe8H00-233" value="Contact num." style="ellipse;whiteSpace=wrap;html=1;labelBackgroundColor=none;fontStyle=4" parent="1" vertex="1">
          <mxGeometry x="1460" y="1170" width="80" height="40" as="geometry" />
        </mxCell>
        <mxCell id="kXFPGUBoY8XizePe8H00-271" value="" style="edgeStyle=none;shape=connector;rounded=0;orthogonalLoop=1;jettySize=auto;html=1;strokeColor=default;align=center;verticalAlign=bottom;fontFamily=Helvetica;fontSize=14;fontColor=default;labelBackgroundColor=default;endArrow=none;endFill=0;" parent="1" source="kXFPGUBoY8XizePe8H00-236" target="kXFPGUBoY8XizePe8H00-232" edge="1">
          <mxGeometry relative="1" as="geometry" />
        </mxCell>
        <mxCell id="kXFPGUBoY8XizePe8H00-236" value="Name" style="ellipse;whiteSpace=wrap;html=1;labelBackgroundColor=none;" parent="1" vertex="1">
          <mxGeometry x="1460" y="1230" width="80" height="40" as="geometry" />
        </mxCell>
        <mxCell id="kXFPGUBoY8XizePe8H00-239" value="&lt;span style=&quot;font-size: 22px;&quot;&gt;Order&lt;/span&gt;" style="rounded=1;whiteSpace=wrap;html=1;labelBackgroundColor=none;" parent="1" vertex="1">
          <mxGeometry x="950" y="1040" width="120" height="60" as="geometry" />
        </mxCell>
        <mxCell id="kXFPGUBoY8XizePe8H00-248" value="&lt;u&gt;ID&lt;/u&gt;" style="ellipse;whiteSpace=wrap;html=1;labelBackgroundColor=none;" parent="1" vertex="1">
          <mxGeometry x="1070" y="960" width="80" height="40" as="geometry" />
        </mxCell>
        <mxCell id="kXFPGUBoY8XizePe8H00-269" value="" style="edgeStyle=none;shape=connector;rounded=0;orthogonalLoop=1;jettySize=auto;html=1;strokeColor=default;align=center;verticalAlign=bottom;fontFamily=Helvetica;fontSize=14;fontColor=default;labelBackgroundColor=default;endArrow=none;endFill=0;" parent="1" source="kXFPGUBoY8XizePe8H00-249" target="kXFPGUBoY8XizePe8H00-239" edge="1">
          <mxGeometry relative="1" as="geometry" />
        </mxCell>
        <mxCell id="kXFPGUBoY8XizePe8H00-249" value="Address" style="ellipse;whiteSpace=wrap;html=1;labelBackgroundColor=none;" parent="1" vertex="1">
          <mxGeometry x="1140" y="1010" width="80" height="40" as="geometry" />
        </mxCell>
        <mxCell id="kXFPGUBoY8XizePe8H00-254" value="" style="edgeStyle=none;shape=connector;rounded=0;orthogonalLoop=1;jettySize=auto;html=1;strokeColor=default;align=center;verticalAlign=bottom;fontFamily=Helvetica;fontSize=14;fontColor=default;labelBackgroundColor=default;endArrow=none;endFill=0;" parent="1" source="kXFPGUBoY8XizePe8H00-250" target="kXFPGUBoY8XizePe8H00-239" edge="1">
          <mxGeometry relative="1" as="geometry" />
        </mxCell>
        <mxCell id="kXFPGUBoY8XizePe8H00-250" value="Bill" style="ellipse;whiteSpace=wrap;html=1;labelBackgroundColor=none;" parent="1" vertex="1">
          <mxGeometry x="810" y="1060" width="80" height="40" as="geometry" />
        </mxCell>
        <mxCell id="kXFPGUBoY8XizePe8H00-251" value="Items Ordered" style="ellipse;whiteSpace=wrap;html=1;labelBackgroundColor=none;" parent="1" vertex="1">
          <mxGeometry x="840" y="1120" width="80" height="40" as="geometry" />
        </mxCell>
        <mxCell id="kXFPGUBoY8XizePe8H00-253" style="edgeStyle=none;shape=connector;rounded=0;orthogonalLoop=1;jettySize=auto;html=1;exitX=1;exitY=1;exitDx=0;exitDy=0;entryX=0;entryY=0.25;entryDx=0;entryDy=0;strokeColor=default;align=center;verticalAlign=bottom;fontFamily=Helvetica;fontSize=14;fontColor=default;labelBackgroundColor=default;endArrow=none;endFill=0;" parent="1" source="kXFPGUBoY8XizePe8H00-252" target="kXFPGUBoY8XizePe8H00-239" edge="1">
          <mxGeometry relative="1" as="geometry" />
        </mxCell>
        <mxCell id="kXFPGUBoY8XizePe8H00-252" value="Date" style="ellipse;whiteSpace=wrap;html=1;labelBackgroundColor=none;" parent="1" vertex="1">
          <mxGeometry x="820" y="980" width="80" height="40" as="geometry" />
        </mxCell>
        <mxCell id="kXFPGUBoY8XizePe8H00-255" style="edgeStyle=none;shape=connector;rounded=0;orthogonalLoop=1;jettySize=auto;html=1;exitX=1;exitY=0;exitDx=0;exitDy=0;entryX=0.083;entryY=1.037;entryDx=0;entryDy=0;entryPerimeter=0;strokeColor=default;align=center;verticalAlign=bottom;fontFamily=Helvetica;fontSize=14;fontColor=default;labelBackgroundColor=default;endArrow=none;endFill=0;" parent="1" source="kXFPGUBoY8XizePe8H00-251" target="kXFPGUBoY8XizePe8H00-239" edge="1">
          <mxGeometry relative="1" as="geometry" />
        </mxCell>
        <mxCell id="kXFPGUBoY8XizePe8H00-259" value="M" style="edgeStyle=none;shape=connector;rounded=0;orthogonalLoop=1;jettySize=auto;html=1;strokeColor=default;align=right;verticalAlign=bottom;fontFamily=Helvetica;fontSize=14;fontColor=default;labelBackgroundColor=default;endArrow=none;endFill=0;" parent="1" source="kXFPGUBoY8XizePe8H00-258" target="kXFPGUBoY8XizePe8H00-54" edge="1">
          <mxGeometry relative="1" as="geometry" />
        </mxCell>
        <mxCell id="kXFPGUBoY8XizePe8H00-260" value="N" style="edgeStyle=none;shape=link;rounded=0;orthogonalLoop=1;jettySize=auto;html=1;strokeColor=default;align=right;verticalAlign=bottom;fontFamily=Helvetica;fontSize=14;fontColor=default;labelBackgroundColor=default;endArrow=none;endFill=0;exitX=0.5;exitY=1;exitDx=0;exitDy=0;" parent="1" source="kXFPGUBoY8XizePe8H00-258" target="kXFPGUBoY8XizePe8H00-239" edge="1">
          <mxGeometry relative="1" as="geometry">
            <mxPoint x="1031.9999999999995" y="981.9999999999998" as="sourcePoint" />
          </mxGeometry>
        </mxCell>
        <mxCell id="kXFPGUBoY8XizePe8H00-258" value="has" style="rhombus;whiteSpace=wrap;html=1;strokeColor=default;align=center;verticalAlign=middle;fontFamily=Helvetica;fontSize=14;fontColor=default;labelBackgroundColor=default;fillColor=default;" parent="1" vertex="1">
          <mxGeometry x="990" y="850" width="80" height="80" as="geometry" />
        </mxCell>
        <mxCell id="kXFPGUBoY8XizePe8H00-261" value="" style="endArrow=none;html=1;rounded=0;strokeColor=default;align=center;verticalAlign=bottom;fontFamily=Helvetica;fontSize=14;fontColor=default;labelBackgroundColor=default;edgeStyle=none;strokeWidth=2;" parent="1" edge="1">
          <mxGeometry width="50" height="50" relative="1" as="geometry">
            <mxPoint x="815" y="1139.38" as="sourcePoint" />
            <mxPoint x="945" y="1139.38" as="targetPoint" />
          </mxGeometry>
        </mxCell>
        <mxCell id="kXFPGUBoY8XizePe8H00-264" value="M" style="edgeStyle=none;shape=connector;rounded=0;orthogonalLoop=1;jettySize=auto;html=1;strokeColor=default;align=right;verticalAlign=bottom;fontFamily=Helvetica;fontSize=14;fontColor=default;labelBackgroundColor=default;endArrow=none;endFill=0;" parent="1" source="kXFPGUBoY8XizePe8H00-263" target="kXFPGUBoY8XizePe8H00-56" edge="1">
          <mxGeometry relative="1" as="geometry" />
        </mxCell>
        <mxCell id="kXFPGUBoY8XizePe8H00-265" value="1" style="edgeStyle=none;shape=link;rounded=0;orthogonalLoop=1;jettySize=auto;html=1;strokeColor=default;align=right;verticalAlign=bottom;fontFamily=Helvetica;fontSize=14;fontColor=default;labelBackgroundColor=default;endArrow=none;endFill=0;" parent="1" source="kXFPGUBoY8XizePe8H00-263" target="kXFPGUBoY8XizePe8H00-239" edge="1">
          <mxGeometry x="0.0159" relative="1" as="geometry">
            <Array as="points" />
            <mxPoint as="offset" />
          </mxGeometry>
        </mxCell>
        <mxCell id="kXFPGUBoY8XizePe8H00-263" value="Makes" style="rhombus;whiteSpace=wrap;html=1;strokeColor=default;align=center;verticalAlign=middle;fontFamily=Helvetica;fontSize=14;fontColor=default;labelBackgroundColor=default;fillColor=default;" parent="1" vertex="1">
          <mxGeometry x="970" y="1170" width="80" height="80" as="geometry" />
        </mxCell>
        <mxCell id="kXFPGUBoY8XizePe8H00-270" style="edgeStyle=none;shape=connector;rounded=0;orthogonalLoop=1;jettySize=auto;html=1;exitX=0;exitY=1;exitDx=0;exitDy=0;entryX=0.906;entryY=-0.025;entryDx=0;entryDy=0;entryPerimeter=0;strokeColor=default;align=center;verticalAlign=bottom;fontFamily=Helvetica;fontSize=14;fontColor=default;labelBackgroundColor=default;endArrow=none;endFill=0;" parent="1" source="kXFPGUBoY8XizePe8H00-248" target="kXFPGUBoY8XizePe8H00-239" edge="1">
          <mxGeometry relative="1" as="geometry" />
        </mxCell>
        <mxCell id="kXFPGUBoY8XizePe8H00-275" value="1" style="edgeStyle=none;shape=connector;rounded=0;orthogonalLoop=1;jettySize=auto;html=1;strokeColor=default;align=center;verticalAlign=bottom;fontFamily=Helvetica;fontSize=14;fontColor=default;labelBackgroundColor=default;endArrow=none;endFill=0;" parent="1" source="kXFPGUBoY8XizePe8H00-273" target="kXFPGUBoY8XizePe8H00-232" edge="1">
          <mxGeometry relative="1" as="geometry" />
        </mxCell>
        <mxCell id="kXFPGUBoY8XizePe8H00-276" value="M" style="edgeStyle=none;shape=link;rounded=0;orthogonalLoop=1;jettySize=auto;html=1;exitX=0;exitY=0;exitDx=0;exitDy=0;entryX=1;entryY=1;entryDx=0;entryDy=0;strokeColor=default;align=center;verticalAlign=bottom;fontFamily=Helvetica;fontSize=14;fontColor=default;labelBackgroundColor=default;endArrow=none;endFill=0;" parent="1" source="kXFPGUBoY8XizePe8H00-273" target="kXFPGUBoY8XizePe8H00-239" edge="1">
          <mxGeometry relative="1" as="geometry" />
        </mxCell>
        <mxCell id="kXFPGUBoY8XizePe8H00-273" value="&lt;font style=&quot;font-size: 14px;&quot;&gt;Delivers&lt;/font&gt;" style="rhombus;whiteSpace=wrap;html=1;fontFamily=Helvetica;fontSize=11;fontColor=default;labelBackgroundColor=default;" parent="1" vertex="1">
          <mxGeometry x="1120" y="1120" width="80" height="80" as="geometry" />
        </mxCell>
        <mxCell id="bBJ-YMQQ2-hhrJfb6YYH-115" value="Restaurant branch" style="shape=table;startSize=30;container=1;collapsible=1;childLayout=tableLayout;fixedRows=1;rowLines=0;fontStyle=1;align=center;resizeLast=1;html=1;" vertex="1" parent="1">
          <mxGeometry x="-60.000000000000014" y="1480" width="640" height="60" as="geometry" />
        </mxCell>
        <mxCell id="bBJ-YMQQ2-hhrJfb6YYH-116" value="" style="shape=tableRow;horizontal=0;startSize=0;swimlaneHead=0;swimlaneBody=0;fillColor=none;collapsible=0;dropTarget=0;points=[[0,0.5],[1,0.5]];portConstraint=eastwest;top=0;left=0;right=0;bottom=1;swimlaneLine=1;fontStyle=0" vertex="1" parent="bBJ-YMQQ2-hhrJfb6YYH-115">
          <mxGeometry y="30" width="640" height="30" as="geometry" />
        </mxCell>
        <mxCell id="bBJ-YMQQ2-hhrJfb6YYH-117" value="Branch num." style="shape=partialRectangle;connectable=0;fillColor=none;top=0;left=0;bottom=0;right=0;align=left;spacingLeft=6;fontStyle=5;overflow=hidden;whiteSpace=wrap;html=1;" vertex="1" parent="bBJ-YMQQ2-hhrJfb6YYH-116">
          <mxGeometry width="160" height="30" as="geometry">
            <mxRectangle width="160" height="30" as="alternateBounds" />
          </mxGeometry>
        </mxCell>
        <mxCell id="bBJ-YMQQ2-hhrJfb6YYH-118" value="Address" style="shape=partialRectangle;connectable=0;fillColor=none;top=0;left=0;bottom=0;right=0;align=left;spacingLeft=6;fontStyle=1;overflow=hidden;whiteSpace=wrap;html=1;" vertex="1" parent="bBJ-YMQQ2-hhrJfb6YYH-116">
          <mxGeometry x="160" width="160" height="30" as="geometry">
            <mxRectangle width="160" height="30" as="alternateBounds" />
          </mxGeometry>
        </mxCell>
        <mxCell id="bBJ-YMQQ2-hhrJfb6YYH-119" value="contact nun." style="shape=partialRectangle;connectable=0;fillColor=none;top=0;left=0;bottom=0;right=0;align=left;spacingLeft=6;fontStyle=1;overflow=hidden;whiteSpace=wrap;html=1;" vertex="1" parent="bBJ-YMQQ2-hhrJfb6YYH-116">
          <mxGeometry x="320" width="160" height="30" as="geometry">
            <mxRectangle width="160" height="30" as="alternateBounds" />
          </mxGeometry>
        </mxCell>
        <mxCell id="bBJ-YMQQ2-hhrJfb6YYH-193" value="ManagerID" style="shape=partialRectangle;connectable=0;fillColor=none;top=0;left=0;bottom=0;right=0;align=left;spacingLeft=6;fontStyle=1;overflow=hidden;whiteSpace=wrap;html=1;" vertex="1" parent="bBJ-YMQQ2-hhrJfb6YYH-116">
          <mxGeometry x="480" width="160" height="30" as="geometry">
            <mxRectangle width="160" height="30" as="alternateBounds" />
          </mxGeometry>
        </mxCell>
        <mxCell id="bBJ-YMQQ2-hhrJfb6YYH-120" value="Employee" style="shape=table;startSize=30;container=1;collapsible=1;childLayout=tableLayout;fixedRows=1;rowLines=0;fontStyle=1;align=center;resizeLast=1;html=1;" vertex="1" parent="1">
          <mxGeometry x="-140" y="1590" width="740" height="60" as="geometry" />
        </mxCell>
        <mxCell id="bBJ-YMQQ2-hhrJfb6YYH-121" value="" style="shape=tableRow;horizontal=0;startSize=0;swimlaneHead=0;swimlaneBody=0;fillColor=none;collapsible=0;dropTarget=0;points=[[0,0.5],[1,0.5]];portConstraint=eastwest;top=0;left=0;right=0;bottom=1;swimlaneLine=1;fontStyle=0" vertex="1" parent="bBJ-YMQQ2-hhrJfb6YYH-120">
          <mxGeometry y="30" width="740" height="30" as="geometry" />
        </mxCell>
        <mxCell id="bBJ-YMQQ2-hhrJfb6YYH-122" value="ID" style="shape=partialRectangle;connectable=0;fillColor=none;top=0;left=0;bottom=0;right=0;align=left;spacingLeft=6;fontStyle=5;overflow=hidden;whiteSpace=wrap;html=1;" vertex="1" parent="bBJ-YMQQ2-hhrJfb6YYH-121">
          <mxGeometry width="80" height="30" as="geometry">
            <mxRectangle width="80" height="30" as="alternateBounds" />
          </mxGeometry>
        </mxCell>
        <mxCell id="bBJ-YMQQ2-hhrJfb6YYH-123" value="Full Name" style="shape=partialRectangle;connectable=0;fillColor=none;top=0;left=0;bottom=0;right=0;align=left;spacingLeft=6;fontStyle=1;overflow=hidden;whiteSpace=wrap;html=1;" vertex="1" parent="bBJ-YMQQ2-hhrJfb6YYH-121">
          <mxGeometry x="80" width="110" height="30" as="geometry">
            <mxRectangle width="110" height="30" as="alternateBounds" />
          </mxGeometry>
        </mxCell>
        <mxCell id="bBJ-YMQQ2-hhrJfb6YYH-124" value="Age" style="shape=partialRectangle;connectable=0;fillColor=none;top=0;left=0;bottom=0;right=0;align=left;spacingLeft=6;fontStyle=1;overflow=hidden;whiteSpace=wrap;html=1;" vertex="1" parent="bBJ-YMQQ2-hhrJfb6YYH-121">
          <mxGeometry x="190" width="80" height="30" as="geometry">
            <mxRectangle width="80" height="30" as="alternateBounds" />
          </mxGeometry>
        </mxCell>
        <mxCell id="bBJ-YMQQ2-hhrJfb6YYH-125" value="City" style="shape=partialRectangle;connectable=0;fillColor=none;top=0;left=0;bottom=0;right=0;align=left;spacingLeft=6;fontStyle=1;overflow=hidden;whiteSpace=wrap;html=1;" vertex="1" parent="bBJ-YMQQ2-hhrJfb6YYH-121">
          <mxGeometry x="270" width="90" height="30" as="geometry">
            <mxRectangle width="90" height="30" as="alternateBounds" />
          </mxGeometry>
        </mxCell>
        <mxCell id="bBJ-YMQQ2-hhrJfb6YYH-155" value="Region" style="shape=partialRectangle;connectable=0;fillColor=none;top=0;left=0;bottom=0;right=0;align=left;spacingLeft=6;fontStyle=1;overflow=hidden;whiteSpace=wrap;html=1;" vertex="1" parent="bBJ-YMQQ2-hhrJfb6YYH-121">
          <mxGeometry x="360" width="100" height="30" as="geometry">
            <mxRectangle width="100" height="30" as="alternateBounds" />
          </mxGeometry>
        </mxCell>
        <mxCell id="bBJ-YMQQ2-hhrJfb6YYH-154" value="Joining date" style="shape=partialRectangle;connectable=0;fillColor=none;top=0;left=0;bottom=0;right=0;align=left;spacingLeft=6;fontStyle=1;overflow=hidden;whiteSpace=wrap;html=1;" vertex="1" parent="bBJ-YMQQ2-hhrJfb6YYH-121">
          <mxGeometry x="460" width="100" height="30" as="geometry">
            <mxRectangle width="100" height="30" as="alternateBounds" />
          </mxGeometry>
        </mxCell>
        <mxCell id="bBJ-YMQQ2-hhrJfb6YYH-153" value="Salary" style="shape=partialRectangle;connectable=0;fillColor=none;top=0;left=0;bottom=0;right=0;align=left;spacingLeft=6;fontStyle=1;overflow=hidden;whiteSpace=wrap;html=1;" vertex="1" parent="bBJ-YMQQ2-hhrJfb6YYH-121">
          <mxGeometry x="560" width="90" height="30" as="geometry">
            <mxRectangle width="90" height="30" as="alternateBounds" />
          </mxGeometry>
        </mxCell>
        <mxCell id="bBJ-YMQQ2-hhrJfb6YYH-156" value="BranchNum" style="shape=partialRectangle;connectable=0;fillColor=none;top=0;left=0;bottom=0;right=0;align=left;spacingLeft=6;fontStyle=1;overflow=hidden;whiteSpace=wrap;html=1;" vertex="1" parent="bBJ-YMQQ2-hhrJfb6YYH-121">
          <mxGeometry x="650" width="90" height="30" as="geometry">
            <mxRectangle width="90" height="30" as="alternateBounds" />
          </mxGeometry>
        </mxCell>
        <mxCell id="bBJ-YMQQ2-hhrJfb6YYH-126" value="Menu item" style="shape=table;startSize=30;container=1;collapsible=1;childLayout=tableLayout;fixedRows=1;rowLines=0;fontStyle=1;align=center;resizeLast=1;html=1;" vertex="1" parent="1">
          <mxGeometry x="-29.860000000000014" y="1700" width="439.8600000000001" height="60" as="geometry" />
        </mxCell>
        <mxCell id="bBJ-YMQQ2-hhrJfb6YYH-127" value="" style="shape=tableRow;horizontal=0;startSize=0;swimlaneHead=0;swimlaneBody=0;fillColor=none;collapsible=0;dropTarget=0;points=[[0,0.5],[1,0.5]];portConstraint=eastwest;top=0;left=0;right=0;bottom=1;swimlaneLine=1;fontStyle=0" vertex="1" parent="bBJ-YMQQ2-hhrJfb6YYH-126">
          <mxGeometry y="30" width="439.8600000000001" height="30" as="geometry" />
        </mxCell>
        <mxCell id="bBJ-YMQQ2-hhrJfb6YYH-128" value="Code" style="shape=partialRectangle;connectable=0;fillColor=none;top=0;left=0;bottom=0;right=0;align=left;spacingLeft=6;fontStyle=5;overflow=hidden;whiteSpace=wrap;html=1;" vertex="1" parent="bBJ-YMQQ2-hhrJfb6YYH-127">
          <mxGeometry width="99.86000000000013" height="30" as="geometry">
            <mxRectangle width="99.86000000000013" height="30" as="alternateBounds" />
          </mxGeometry>
        </mxCell>
        <mxCell id="bBJ-YMQQ2-hhrJfb6YYH-129" value="Item name" style="shape=partialRectangle;connectable=0;fillColor=none;top=0;left=0;bottom=0;right=0;align=left;spacingLeft=6;fontStyle=1;overflow=hidden;whiteSpace=wrap;html=1;" vertex="1" parent="bBJ-YMQQ2-hhrJfb6YYH-127">
          <mxGeometry x="99.86000000000013" width="140" height="30" as="geometry">
            <mxRectangle width="140" height="30" as="alternateBounds" />
          </mxGeometry>
        </mxCell>
        <mxCell id="bBJ-YMQQ2-hhrJfb6YYH-130" value="Price" style="shape=partialRectangle;connectable=0;fillColor=none;top=0;left=0;bottom=0;right=0;align=left;spacingLeft=6;fontStyle=1;overflow=hidden;whiteSpace=wrap;html=1;" vertex="1" parent="bBJ-YMQQ2-hhrJfb6YYH-127">
          <mxGeometry x="239.86000000000013" width="100" height="30" as="geometry">
            <mxRectangle width="100" height="30" as="alternateBounds" />
          </mxGeometry>
        </mxCell>
        <mxCell id="bBJ-YMQQ2-hhrJfb6YYH-161" value="Category" style="shape=partialRectangle;connectable=0;fillColor=none;top=0;left=0;bottom=0;right=0;align=left;spacingLeft=6;fontStyle=1;overflow=hidden;whiteSpace=wrap;html=1;" vertex="1" parent="bBJ-YMQQ2-hhrJfb6YYH-127">
          <mxGeometry x="339.8600000000001" width="100" height="30" as="geometry">
            <mxRectangle width="100" height="30" as="alternateBounds" />
          </mxGeometry>
        </mxCell>
        <mxCell id="bBJ-YMQQ2-hhrJfb6YYH-131" value="Order" style="shape=table;startSize=30;container=1;collapsible=1;childLayout=tableLayout;fixedRows=1;rowLines=0;fontStyle=1;align=center;resizeLast=1;html=1;" vertex="1" parent="1">
          <mxGeometry x="-30" y="1890" width="560" height="60" as="geometry" />
        </mxCell>
        <mxCell id="bBJ-YMQQ2-hhrJfb6YYH-132" value="" style="shape=tableRow;horizontal=0;startSize=0;swimlaneHead=0;swimlaneBody=0;fillColor=none;collapsible=0;dropTarget=0;points=[[0,0.5],[1,0.5]];portConstraint=eastwest;top=0;left=0;right=0;bottom=1;swimlaneLine=1;fontStyle=0" vertex="1" parent="bBJ-YMQQ2-hhrJfb6YYH-131">
          <mxGeometry y="30" width="560" height="30" as="geometry" />
        </mxCell>
        <mxCell id="bBJ-YMQQ2-hhrJfb6YYH-133" value="ID" style="shape=partialRectangle;connectable=0;fillColor=none;top=0;left=0;bottom=0;right=0;align=center;spacingLeft=6;fontStyle=5;overflow=hidden;whiteSpace=wrap;html=1;" vertex="1" parent="bBJ-YMQQ2-hhrJfb6YYH-132">
          <mxGeometry width="80" height="30" as="geometry">
            <mxRectangle width="80" height="30" as="alternateBounds" />
          </mxGeometry>
        </mxCell>
        <mxCell id="bBJ-YMQQ2-hhrJfb6YYH-134" value="Date" style="shape=partialRectangle;connectable=0;fillColor=none;top=0;left=0;bottom=0;right=0;align=center;spacingLeft=6;fontStyle=1;overflow=hidden;whiteSpace=wrap;html=1;" vertex="1" parent="bBJ-YMQQ2-hhrJfb6YYH-132">
          <mxGeometry x="80" width="70" height="30" as="geometry">
            <mxRectangle width="70" height="30" as="alternateBounds" />
          </mxGeometry>
        </mxCell>
        <mxCell id="bBJ-YMQQ2-hhrJfb6YYH-135" value="Bill" style="shape=partialRectangle;connectable=0;fillColor=none;top=0;left=0;bottom=0;right=0;align=center;spacingLeft=6;fontStyle=1;overflow=hidden;whiteSpace=wrap;html=1;" vertex="1" parent="bBJ-YMQQ2-hhrJfb6YYH-132">
          <mxGeometry x="150" width="80" height="30" as="geometry">
            <mxRectangle width="80" height="30" as="alternateBounds" />
          </mxGeometry>
        </mxCell>
        <mxCell id="bBJ-YMQQ2-hhrJfb6YYH-136" value="Address" style="shape=partialRectangle;connectable=0;fillColor=none;top=0;left=0;bottom=0;right=0;align=center;spacingLeft=6;fontStyle=1;overflow=hidden;whiteSpace=wrap;html=1;" vertex="1" parent="bBJ-YMQQ2-hhrJfb6YYH-132">
          <mxGeometry x="230" width="110" height="30" as="geometry">
            <mxRectangle width="110" height="30" as="alternateBounds" />
          </mxGeometry>
        </mxCell>
        <mxCell id="bBJ-YMQQ2-hhrJfb6YYH-137" value="CustomerCode" style="shape=partialRectangle;connectable=0;fillColor=none;top=0;left=0;bottom=0;right=0;align=center;spacingLeft=6;fontStyle=1;overflow=hidden;whiteSpace=wrap;html=1;" vertex="1" parent="bBJ-YMQQ2-hhrJfb6YYH-132">
          <mxGeometry x="340" width="100" height="30" as="geometry">
            <mxRectangle width="100" height="30" as="alternateBounds" />
          </mxGeometry>
        </mxCell>
        <mxCell id="bBJ-YMQQ2-hhrJfb6YYH-195" value="DeliveryContact" style="shape=partialRectangle;connectable=0;fillColor=none;top=0;left=0;bottom=0;right=0;align=center;spacingLeft=6;fontStyle=1;overflow=hidden;whiteSpace=wrap;html=1;" vertex="1" parent="bBJ-YMQQ2-hhrJfb6YYH-132">
          <mxGeometry x="440" width="120" height="30" as="geometry">
            <mxRectangle width="120" height="30" as="alternateBounds" />
          </mxGeometry>
        </mxCell>
        <mxCell id="bBJ-YMQQ2-hhrJfb6YYH-142" value="Delivery Boy" style="shape=table;startSize=30;container=1;collapsible=1;childLayout=tableLayout;fixedRows=1;rowLines=0;fontStyle=1;align=center;resizeLast=1;html=1;" vertex="1" parent="1">
          <mxGeometry x="-10.000000000000014" y="2070" width="150" height="60" as="geometry" />
        </mxCell>
        <mxCell id="bBJ-YMQQ2-hhrJfb6YYH-143" value="" style="shape=tableRow;horizontal=0;startSize=0;swimlaneHead=0;swimlaneBody=0;fillColor=none;collapsible=0;dropTarget=0;points=[[0,0.5],[1,0.5]];portConstraint=eastwest;top=0;left=0;right=0;bottom=1;swimlaneLine=1;fontStyle=0" vertex="1" parent="bBJ-YMQQ2-hhrJfb6YYH-142">
          <mxGeometry y="30" width="150" height="30" as="geometry" />
        </mxCell>
        <mxCell id="bBJ-YMQQ2-hhrJfb6YYH-144" value="Contact num" style="shape=partialRectangle;connectable=0;fillColor=none;top=0;left=0;bottom=0;right=0;align=center;spacingLeft=6;fontStyle=5;overflow=hidden;whiteSpace=wrap;html=1;" vertex="1" parent="bBJ-YMQQ2-hhrJfb6YYH-143">
          <mxGeometry width="89.93000000000006" height="30" as="geometry">
            <mxRectangle width="89.93000000000006" height="30" as="alternateBounds" />
          </mxGeometry>
        </mxCell>
        <mxCell id="bBJ-YMQQ2-hhrJfb6YYH-145" value="Name" style="shape=partialRectangle;connectable=0;fillColor=none;top=0;left=0;bottom=0;right=0;align=center;spacingLeft=6;fontStyle=1;overflow=hidden;whiteSpace=wrap;html=1;" vertex="1" parent="bBJ-YMQQ2-hhrJfb6YYH-143">
          <mxGeometry x="89.93000000000006" width="60.069999999999936" height="30" as="geometry">
            <mxRectangle width="60.069999999999936" height="30" as="alternateBounds" />
          </mxGeometry>
        </mxCell>
        <mxCell id="bBJ-YMQQ2-hhrJfb6YYH-158" style="edgeStyle=orthogonalEdgeStyle;rounded=0;orthogonalLoop=1;jettySize=auto;html=1;exitX=0.942;exitY=1.085;exitDx=0;exitDy=0;entryX=0.186;entryY=1.048;entryDx=0;entryDy=0;entryPerimeter=0;exitPerimeter=0;" edge="1" parent="1" source="bBJ-YMQQ2-hhrJfb6YYH-121" target="bBJ-YMQQ2-hhrJfb6YYH-116">
          <mxGeometry relative="1" as="geometry">
            <Array as="points">
              <mxPoint x="557" y="1670" />
              <mxPoint x="620" y="1670" />
              <mxPoint x="620" y="1560" />
              <mxPoint x="59" y="1560" />
            </Array>
          </mxGeometry>
        </mxCell>
        <mxCell id="bBJ-YMQQ2-hhrJfb6YYH-162" value="Serves" style="shape=table;startSize=30;container=1;collapsible=1;childLayout=tableLayout;fixedRows=1;rowLines=0;fontStyle=1;align=center;resizeLast=1;html=1;" vertex="1" parent="1">
          <mxGeometry x="-40.000000000000014" y="1790" width="150" height="60" as="geometry" />
        </mxCell>
        <mxCell id="bBJ-YMQQ2-hhrJfb6YYH-163" value="" style="shape=tableRow;horizontal=0;startSize=0;swimlaneHead=0;swimlaneBody=0;fillColor=none;collapsible=0;dropTarget=0;points=[[0,0.5],[1,0.5]];portConstraint=eastwest;top=0;left=0;right=0;bottom=1;swimlaneLine=1;fontStyle=0" vertex="1" parent="bBJ-YMQQ2-hhrJfb6YYH-162">
          <mxGeometry y="30" width="150" height="30" as="geometry" />
        </mxCell>
        <mxCell id="bBJ-YMQQ2-hhrJfb6YYH-164" value="BranchID" style="shape=partialRectangle;connectable=0;fillColor=none;top=0;left=0;bottom=0;right=0;align=center;spacingLeft=6;fontStyle=5;overflow=hidden;whiteSpace=wrap;html=1;" vertex="1" parent="bBJ-YMQQ2-hhrJfb6YYH-163">
          <mxGeometry width="80" height="30" as="geometry">
            <mxRectangle width="80" height="30" as="alternateBounds" />
          </mxGeometry>
        </mxCell>
        <mxCell id="bBJ-YMQQ2-hhrJfb6YYH-165" value="&lt;u&gt;itemCode&lt;/u&gt;" style="shape=partialRectangle;connectable=0;fillColor=none;top=0;left=0;bottom=0;right=0;align=center;spacingLeft=6;fontStyle=1;overflow=hidden;whiteSpace=wrap;html=1;" vertex="1" parent="bBJ-YMQQ2-hhrJfb6YYH-163">
          <mxGeometry x="80" width="70" height="30" as="geometry">
            <mxRectangle width="70" height="30" as="alternateBounds" />
          </mxGeometry>
        </mxCell>
        <mxCell id="bBJ-YMQQ2-hhrJfb6YYH-171" style="edgeStyle=orthogonalEdgeStyle;rounded=0;orthogonalLoop=1;jettySize=auto;html=1;exitX=0.804;exitY=1.085;exitDx=0;exitDy=0;entryX=0.14;entryY=0.974;entryDx=0;entryDy=0;entryPerimeter=0;exitPerimeter=0;" edge="1" parent="1" source="bBJ-YMQQ2-hhrJfb6YYH-163" target="bBJ-YMQQ2-hhrJfb6YYH-127">
          <mxGeometry relative="1" as="geometry">
            <Array as="points">
              <mxPoint x="81" y="1860" />
              <mxPoint x="130" y="1860" />
              <mxPoint x="130" y="1780" />
              <mxPoint x="32" y="1780" />
            </Array>
          </mxGeometry>
        </mxCell>
        <mxCell id="bBJ-YMQQ2-hhrJfb6YYH-172" style="edgeStyle=orthogonalEdgeStyle;rounded=0;orthogonalLoop=1;jettySize=auto;html=1;exitX=0.271;exitY=1.085;exitDx=0;exitDy=0;entryX=0.108;entryY=1.122;entryDx=0;entryDy=0;entryPerimeter=0;exitPerimeter=0;" edge="1" parent="1" source="bBJ-YMQQ2-hhrJfb6YYH-163" target="bBJ-YMQQ2-hhrJfb6YYH-116">
          <mxGeometry relative="1" as="geometry">
            <Array as="points">
              <mxPoint x="1" y="1860" />
              <mxPoint x="-170" y="1860" />
              <mxPoint x="-170" y="1560" />
              <mxPoint x="9" y="1560" />
            </Array>
          </mxGeometry>
        </mxCell>
        <mxCell id="bBJ-YMQQ2-hhrJfb6YYH-174" value="Customer" style="shape=table;startSize=30;container=1;collapsible=1;childLayout=tableLayout;fixedRows=1;rowLines=0;fontStyle=1;align=center;resizeLast=1;html=1;" vertex="1" parent="1">
          <mxGeometry x="-39.860000000000014" y="1980" width="339.8600000000001" height="60" as="geometry" />
        </mxCell>
        <mxCell id="bBJ-YMQQ2-hhrJfb6YYH-175" value="" style="shape=tableRow;horizontal=0;startSize=0;swimlaneHead=0;swimlaneBody=0;fillColor=none;collapsible=0;dropTarget=0;points=[[0,0.5],[1,0.5]];portConstraint=eastwest;top=0;left=0;right=0;bottom=1;swimlaneLine=1;fontStyle=0" vertex="1" parent="bBJ-YMQQ2-hhrJfb6YYH-174">
          <mxGeometry y="30" width="339.8600000000001" height="30" as="geometry" />
        </mxCell>
        <mxCell id="bBJ-YMQQ2-hhrJfb6YYH-176" value="Code" style="shape=partialRectangle;connectable=0;fillColor=none;top=0;left=0;bottom=0;right=0;align=left;spacingLeft=6;fontStyle=5;overflow=hidden;whiteSpace=wrap;html=1;" vertex="1" parent="bBJ-YMQQ2-hhrJfb6YYH-175">
          <mxGeometry width="99.86000000000013" height="30" as="geometry">
            <mxRectangle width="99.86000000000013" height="30" as="alternateBounds" />
          </mxGeometry>
        </mxCell>
        <mxCell id="bBJ-YMQQ2-hhrJfb6YYH-177" value="Name" style="shape=partialRectangle;connectable=0;fillColor=none;top=0;left=0;bottom=0;right=0;align=left;spacingLeft=6;fontStyle=1;overflow=hidden;whiteSpace=wrap;html=1;" vertex="1" parent="bBJ-YMQQ2-hhrJfb6YYH-175">
          <mxGeometry x="99.86000000000013" width="140" height="30" as="geometry">
            <mxRectangle width="140" height="30" as="alternateBounds" />
          </mxGeometry>
        </mxCell>
        <mxCell id="bBJ-YMQQ2-hhrJfb6YYH-178" value="ContactNum" style="shape=partialRectangle;connectable=0;fillColor=none;top=0;left=0;bottom=0;right=0;align=left;spacingLeft=6;fontStyle=1;overflow=hidden;whiteSpace=wrap;html=1;" vertex="1" parent="bBJ-YMQQ2-hhrJfb6YYH-175">
          <mxGeometry x="239.86000000000013" width="100" height="30" as="geometry">
            <mxRectangle width="100" height="30" as="alternateBounds" />
          </mxGeometry>
        </mxCell>
        <mxCell id="bBJ-YMQQ2-hhrJfb6YYH-180" value="Items ordered" style="shape=table;startSize=30;container=1;collapsible=1;childLayout=tableLayout;fixedRows=1;rowLines=0;fontStyle=1;align=center;resizeLast=1;html=1;" vertex="1" parent="1">
          <mxGeometry x="210" y="2070" width="150" height="60" as="geometry" />
        </mxCell>
        <mxCell id="bBJ-YMQQ2-hhrJfb6YYH-181" value="" style="shape=tableRow;horizontal=0;startSize=0;swimlaneHead=0;swimlaneBody=0;fillColor=none;collapsible=0;dropTarget=0;points=[[0,0.5],[1,0.5]];portConstraint=eastwest;top=0;left=0;right=0;bottom=1;swimlaneLine=1;fontStyle=0" vertex="1" parent="bBJ-YMQQ2-hhrJfb6YYH-180">
          <mxGeometry y="30" width="150" height="30" as="geometry" />
        </mxCell>
        <mxCell id="bBJ-YMQQ2-hhrJfb6YYH-182" value="OrderID" style="shape=partialRectangle;connectable=0;fillColor=none;top=0;left=0;bottom=0;right=0;align=center;spacingLeft=6;fontStyle=5;overflow=hidden;whiteSpace=wrap;html=1;" vertex="1" parent="bBJ-YMQQ2-hhrJfb6YYH-181">
          <mxGeometry width="80" height="30" as="geometry">
            <mxRectangle width="80" height="30" as="alternateBounds" />
          </mxGeometry>
        </mxCell>
        <mxCell id="bBJ-YMQQ2-hhrJfb6YYH-183" value="&lt;u&gt;itemCode&lt;/u&gt;" style="shape=partialRectangle;connectable=0;fillColor=none;top=0;left=0;bottom=0;right=0;align=center;spacingLeft=6;fontStyle=1;overflow=hidden;whiteSpace=wrap;html=1;" vertex="1" parent="bBJ-YMQQ2-hhrJfb6YYH-181">
          <mxGeometry x="80" width="70" height="30" as="geometry">
            <mxRectangle width="70" height="30" as="alternateBounds" />
          </mxGeometry>
        </mxCell>
        <mxCell id="bBJ-YMQQ2-hhrJfb6YYH-184" style="edgeStyle=orthogonalEdgeStyle;rounded=0;orthogonalLoop=1;jettySize=auto;html=1;exitX=0.804;exitY=1.048;exitDx=0;exitDy=0;entryX=0.193;entryY=1.159;entryDx=0;entryDy=0;entryPerimeter=0;exitPerimeter=0;" edge="1" parent="1" source="bBJ-YMQQ2-hhrJfb6YYH-181" target="bBJ-YMQQ2-hhrJfb6YYH-127">
          <mxGeometry relative="1" as="geometry">
            <Array as="points">
              <mxPoint x="331" y="2140" />
              <mxPoint x="540" y="2140" />
              <mxPoint x="540" y="1770" />
              <mxPoint x="55" y="1770" />
            </Array>
          </mxGeometry>
        </mxCell>
        <mxCell id="bBJ-YMQQ2-hhrJfb6YYH-185" style="edgeStyle=orthogonalEdgeStyle;rounded=0;orthogonalLoop=1;jettySize=auto;html=1;exitX=0.212;exitY=1.122;exitDx=0;exitDy=0;entryX=0.113;entryY=1.048;entryDx=0;entryDy=0;entryPerimeter=0;exitPerimeter=0;" edge="1" parent="1" source="bBJ-YMQQ2-hhrJfb6YYH-181" target="bBJ-YMQQ2-hhrJfb6YYH-132">
          <mxGeometry relative="1" as="geometry">
            <Array as="points">
              <mxPoint x="242" y="2150" />
              <mxPoint x="190" y="2150" />
              <mxPoint x="190" y="2050" />
              <mxPoint x="350" y="2050" />
              <mxPoint x="350" y="1960" />
              <mxPoint x="20" y="1960" />
            </Array>
          </mxGeometry>
        </mxCell>
        <mxCell id="bBJ-YMQQ2-hhrJfb6YYH-194" style="edgeStyle=orthogonalEdgeStyle;rounded=0;orthogonalLoop=1;jettySize=auto;html=1;exitX=0.886;exitY=1.085;exitDx=0;exitDy=0;entryX=0.055;entryY=1.048;entryDx=0;entryDy=0;entryPerimeter=0;exitPerimeter=0;" edge="1" parent="1" source="bBJ-YMQQ2-hhrJfb6YYH-116" target="bBJ-YMQQ2-hhrJfb6YYH-121">
          <mxGeometry relative="1" as="geometry">
            <Array as="points">
              <mxPoint x="507" y="1550" />
              <mxPoint x="630" y="1550" />
              <mxPoint x="630" y="1680" />
              <mxPoint x="-99" y="1680" />
            </Array>
          </mxGeometry>
        </mxCell>
        <mxCell id="bBJ-YMQQ2-hhrJfb6YYH-197" style="edgeStyle=orthogonalEdgeStyle;rounded=0;orthogonalLoop=1;jettySize=auto;html=1;exitX=0.909;exitY=1.106;exitDx=0;exitDy=0;entryX=0.321;entryY=0.955;entryDx=0;entryDy=0;entryPerimeter=0;exitPerimeter=0;" edge="1" parent="1" source="bBJ-YMQQ2-hhrJfb6YYH-132" target="bBJ-YMQQ2-hhrJfb6YYH-143">
          <mxGeometry relative="1" as="geometry">
            <Array as="points">
              <mxPoint x="479" y="1960" />
              <mxPoint x="480" y="1960" />
              <mxPoint x="480" y="2160" />
              <mxPoint x="38" y="2160" />
            </Array>
          </mxGeometry>
        </mxCell>
      </root>
    </mxGraphModel>
  </diagram>
</mxfile>
